<svg width="33" height="48" viewBox="0 0 33 48" fill="none" xmlns="http://www.w3.org/2000/svg">
<path d="M29.2094 22.8126H28.9744C28.4565 22.8126 27.9644 22.9264 27.5223 23.1303C27.183 21.5629 25.7863 20.3853 24.1193 20.3853H23.8837C23.2894 20.3853 22.7299 20.5349 22.2399 20.7984C21.713 19.5449 20.4722 18.6624 19.0291 18.6624H18.7936C18.3062 18.6624 17.8415 18.7631 17.4206 18.9448V13.9617C17.4206 12.0417 15.8589 10.4806 13.939 10.4806H13.7035C11.7841 10.4806 10.2224 12.0422 10.2224 13.9617V26.7442L8.63914 27.946C7.3778 28.9033 6.57853 30.2964 6.38781 31.868C6.19708 33.4402 6.64018 34.984 7.6365 36.2153L12.5775 42.3239V44.7517C12.5775 46.2222 13.7741 47.4193 15.2446 47.4193H27.5792C29.0498 47.4193 30.2468 46.2227 30.2468 44.7517L30.2473 42.4466C31.8259 40.4624 32.6915 38.0009 32.6915 35.4697V26.2937C32.6905 24.3743 31.1293 22.8126 29.2094 22.8126ZM30.583 35.4692C30.583 37.6305 29.8042 39.7306 28.3917 41.3829C28.2278 41.5736 28.1388 41.8165 28.1388 42.0678V44.7517C28.1388 45.0605 27.8875 45.3118 27.5787 45.3118H15.2446C14.9364 45.3118 14.685 45.0605 14.685 44.7517V41.9508C14.685 41.7095 14.6023 41.4756 14.4506 41.288L9.27508 34.8897C8.64072 34.1057 8.35832 33.1225 8.48003 32.1215C8.60121 31.1209 9.1107 30.2337 9.91365 29.6241L10.2224 29.3901V32.2853C10.2224 32.867 10.6945 33.3391 11.2762 33.3391C11.8578 33.3391 12.3299 32.867 12.3299 32.2853V27.2768C12.3299 27.2695 12.3299 27.2631 12.3299 27.2558V13.9611C12.3299 13.2035 12.9458 12.5876 13.7035 12.5876H13.939C14.6966 12.5876 15.3125 13.204 15.3125 13.9611V22.1435C15.3125 22.144 15.3125 22.144 15.3125 22.1445L15.3178 28.9502C15.3183 29.5319 15.7899 30.0029 16.3716 30.0029C16.9532 30.0024 17.4253 29.5308 17.4248 28.9481L17.42 22.1435C17.42 21.3858 18.036 20.7699 18.7931 20.7699H19.0286C19.7862 20.7699 20.4022 21.3864 20.4022 22.1435V23.8664V23.8674L20.4069 28.9502C20.4074 29.5319 20.879 30.0029 21.4606 30.0029C21.4612 30.0029 21.4612 30.0029 21.4617 30.0029C22.0434 30.0024 22.5149 29.5303 22.5144 28.9481L22.5097 23.8658C22.5097 23.1082 23.1256 22.4923 23.8827 22.4923H24.1182C24.8758 22.4923 25.4918 23.1087 25.4918 23.8658V26.0197C25.4886 26.0545 25.4812 26.0882 25.4812 26.1235L25.4865 28.9507C25.4875 29.5324 25.9591 30.0024 26.5402 30.0024C26.5408 30.0024 26.5413 30.0024 26.5424 30.0024C27.124 30.0013 27.595 29.5287 27.594 28.9465L27.5893 26.3901C27.5924 26.3574 27.5993 26.3264 27.5993 26.2932C27.5993 25.5355 28.2157 24.9196 28.9728 24.9196H29.2078C29.9655 24.9196 30.5814 25.536 30.5814 26.2932V35.4692H30.583Z" fill="white"/>
<path d="M26.3527 13.4411H19.9227C19.341 13.4411 18.869 12.969 18.869 12.3874C18.869 11.8057 19.341 11.3336 19.9227 11.3336H26.3527C26.9344 11.3336 27.4064 11.8057 27.4064 12.3874C27.4064 12.969 26.9349 13.4411 26.3527 13.4411Z" fill="white"/>
<path d="M13.703 8.53748C13.1213 8.53748 12.6492 8.0654 12.6492 7.48373V1.05375C12.6492 0.47208 13.1213 0 13.703 0C14.2847 0 14.7567 0.47208 14.7567 1.05375V7.48373C14.7567 8.06593 14.2852 8.53748 13.703 8.53748Z" fill="white"/>
<path d="M18.2199 9.71615C17.9501 9.71615 17.6809 9.61341 17.4749 9.4074C17.0634 8.99591 17.0634 8.32889 17.4749 7.9174L22.0218 3.37099C22.4333 2.95951 23.1003 2.95951 23.5118 3.37099C23.9233 3.78248 23.9233 4.44951 23.5118 4.861L18.9649 9.4074C18.7589 9.61341 18.4891 9.71615 18.2199 9.71615Z" fill="white"/>
<path d="M7.48373 13.4411H1.05375C0.47208 13.4411 0 12.969 0 12.3874C0 11.8057 0.47208 11.3336 1.05375 11.3336H7.48373C8.0654 11.3336 8.53748 11.8057 8.53748 12.3874C8.53748 12.969 8.0654 13.4411 7.48373 13.4411Z" fill="white"/>
<path d="M9.18657 9.71615C8.91681 9.71615 8.64705 9.61341 8.44157 9.4074L3.89516 4.861C3.48368 4.44951 3.48368 3.78248 3.89516 3.37099C4.30613 2.95951 4.9742 2.95951 5.38517 3.37099L9.93157 7.9174C10.3431 8.32889 10.3431 8.99591 9.93157 9.4074C9.72609 9.61341 9.45633 9.71615 9.18657 9.71615Z" fill="white"/>
</svg>
