<svg width="257" height="176" viewBox="0 0 257 176" fill="none" xmlns="http://www.w3.org/2000/svg">
<path d="M1.13417 0.056824C0.611259 0.231646 0.138152 0.761106 0.0285904 1.29556C-0.185553 2.32451 0.840343 3.35346 1.86624 3.13868C2.63815 2.97885 3.23576 2.18965 3.16106 1.44541C3.10628 0.920943 2.71285 0.381493 2.21484 0.136743C1.91106 -0.00810981 1.44293 -0.0430741 1.13417 0.056824Z" fill="white"/>
<path d="M29.3007 0.0568187C28.5487 0.306541 28.0407 1.13562 28.1951 1.86481C28.3196 2.45914 28.8724 3.01353 29.4601 3.13839C30.4264 3.34316 31.4275 2.42918 31.3279 1.44527C31.2731 0.920857 30.8796 0.381457 30.3815 0.13673C30.0777 -0.00810885 29.6095 -0.0430701 29.3007 0.0568187Z" fill="white"/>
<path d="M57.4689 0.056824C56.946 0.231646 56.4729 0.761106 56.3633 1.29556C56.1492 2.32451 57.1751 3.35346 58.201 3.13868C58.9729 2.97885 59.5705 2.18965 59.4958 1.44541C59.441 0.920943 59.0476 0.381493 58.5496 0.136743C58.2458 -0.00810981 57.7776 -0.0430741 57.4689 0.056824Z" fill="white"/>
<path d="M85.6362 0.056824C85.1133 0.231646 84.6402 0.761106 84.5307 1.29556C84.3165 2.32451 85.3424 3.35346 86.3683 3.13868C87.1402 2.97885 87.7378 2.18965 87.6631 1.44541C87.6084 0.920943 87.2149 0.381493 86.7169 0.136743C86.4131 -0.00810981 85.945 -0.0430741 85.6362 0.056824Z" fill="white"/>
<path d="M113.804 0.056824C113.281 0.231646 112.808 0.761106 112.698 1.29556C112.484 2.32451 113.51 3.35346 114.536 3.13868C115.308 2.97885 115.905 2.18965 115.83 1.44541C115.776 0.920943 115.382 0.381493 114.884 0.136743C114.58 -0.00810981 114.112 -0.0430741 113.804 0.056824Z" fill="white"/>
<path d="M141.971 0.056824C141.448 0.231646 140.975 0.761106 140.865 1.29556C140.651 2.32451 141.677 3.35346 142.703 3.13868C143.475 2.97885 144.073 2.18965 143.998 1.44541C143.943 0.920943 143.55 0.381493 143.052 0.136743C142.748 -0.00810981 142.28 -0.0430741 141.971 0.056824Z" fill="white"/>
<path d="M170.138 0.056824C169.615 0.231646 169.142 0.761106 169.033 1.29556C168.819 2.32451 169.844 3.35346 170.87 3.13868C171.642 2.97885 172.24 2.18965 172.165 1.44541C172.11 0.920943 171.717 0.381493 171.219 0.136743C170.915 -0.00810981 170.447 -0.0430741 170.138 0.056824Z" fill="white"/>
<path d="M198.306 0.056824C197.783 0.231646 197.31 0.761106 197.2 1.29556C196.986 2.32451 198.012 3.35346 199.038 3.13868C199.81 2.97885 200.407 2.18965 200.333 1.44541C200.278 0.920943 199.884 0.381493 199.386 0.136743C199.083 -0.00810981 198.614 -0.0430741 198.306 0.056824Z" fill="white"/>
<path d="M226.475 0.065572C225.952 0.239757 225.478 0.767288 225.368 1.2998C225.243 1.88207 225.528 2.51411 226.076 2.88737C226.61 3.25564 227.219 3.26062 227.758 2.9023C228.641 2.31505 228.76 1.22017 228.022 0.488593C227.598 0.0605953 226.989 -0.103636 226.475 0.065572Z" fill="white"/>
<path d="M254.643 0.065572C254.119 0.239757 253.645 0.767288 253.535 1.2998C253.411 1.88207 253.695 2.51411 254.244 2.88737C254.778 3.25564 255.386 3.26062 255.925 2.9023C256.808 2.31505 256.928 1.22017 256.189 0.488593C255.765 0.0605953 255.157 -0.103636 254.643 0.065572Z" fill="white"/>
<path d="M1.13417 19.2242C0.611259 19.399 0.138152 19.9285 0.0285904 20.4629C-0.185553 21.4919 0.840343 22.5208 1.86624 22.306C2.63815 22.1462 3.23576 21.357 3.16106 20.6128C3.10628 20.0883 2.71285 19.5489 2.21484 19.3041C1.91106 19.1592 1.44293 19.1243 1.13417 19.2242Z" fill="white"/>
<path d="M29.3007 19.2242C28.5487 19.4739 28.0407 20.303 28.1951 21.0322C28.3196 21.6265 28.8724 22.1809 29.4601 22.3057C30.4264 22.5105 31.4275 21.5965 31.3279 20.6126C31.2731 20.0882 30.8796 19.5488 30.3815 19.3041C30.0777 19.1592 29.6095 19.1243 29.3007 19.2242Z" fill="white"/>
<path d="M57.4689 19.2242C56.946 19.399 56.4729 19.9285 56.3633 20.4629C56.1492 21.4919 57.1751 22.5208 58.201 22.306C58.9729 22.1462 59.5705 21.357 59.4958 20.6128C59.441 20.0883 59.0476 19.5489 58.5496 19.3041C58.2458 19.1592 57.7776 19.1243 57.4689 19.2242Z" fill="white"/>
<path d="M85.6362 19.2242C85.1133 19.399 84.6402 19.9285 84.5307 20.4629C84.3165 21.4919 85.3424 22.5208 86.3683 22.306C87.1402 22.1462 87.7378 21.357 87.6631 20.6128C87.6084 20.0883 87.2149 19.5489 86.7169 19.3041C86.4131 19.1592 85.945 19.1243 85.6362 19.2242Z" fill="white"/>
<path d="M113.804 19.2242C113.281 19.399 112.808 19.9285 112.698 20.4629C112.484 21.4919 113.51 22.5208 114.536 22.306C115.308 22.1462 115.905 21.357 115.83 20.6128C115.776 20.0883 115.382 19.5489 114.884 19.3041C114.58 19.1592 114.112 19.1243 113.804 19.2242Z" fill="white"/>
<path d="M141.971 19.2242C141.448 19.399 140.975 19.9285 140.865 20.4629C140.651 21.4919 141.677 22.5208 142.703 22.306C143.475 22.1462 144.073 21.357 143.998 20.6128C143.943 20.0883 143.55 19.5489 143.052 19.3041C142.748 19.1592 142.28 19.1243 141.971 19.2242Z" fill="white"/>
<path d="M170.138 19.2242C169.615 19.399 169.142 19.9285 169.033 20.4629C168.819 21.4919 169.844 22.5208 170.87 22.306C171.642 22.1462 172.24 21.357 172.165 20.6128C172.11 20.0883 171.717 19.5489 171.219 19.3041C170.915 19.1592 170.447 19.1243 170.138 19.2242Z" fill="white"/>
<path d="M198.306 19.2242C197.783 19.399 197.31 19.9285 197.2 20.4629C196.986 21.4919 198.012 22.5208 199.038 22.306C199.81 22.1462 200.407 21.357 200.333 20.6128C200.278 20.0883 199.884 19.5489 199.386 19.3041C199.083 19.1592 198.614 19.1243 198.306 19.2242Z" fill="white"/>
<path d="M226.475 19.2329C225.952 19.4071 225.478 19.9346 225.368 20.4672C225.243 21.0494 225.528 21.6815 226.076 22.0547C226.61 22.423 227.219 22.428 227.758 22.0697C228.641 21.4824 228.76 20.3875 228.022 19.656C227.598 19.228 226.989 19.0637 226.475 19.2329Z" fill="white"/>
<path d="M254.643 19.2329C254.119 19.4071 253.645 19.9346 253.535 20.4672C253.411 21.0494 253.695 21.6815 254.244 22.0547C254.778 22.423 255.386 22.428 255.925 22.0697C256.808 21.4824 256.928 20.3875 256.189 19.656C255.765 19.228 255.157 19.0637 254.643 19.2329Z" fill="white"/>
<path d="M1.13417 38.3915C0.611259 38.5664 0.138152 39.0958 0.0285904 39.6303C-0.185553 40.6592 0.840343 41.6882 1.86624 41.4734C2.63815 41.3136 3.23576 40.5244 3.16106 39.7801C3.10628 39.2557 2.71285 38.7162 2.21484 38.4715C1.91106 38.3266 1.44293 38.2916 1.13417 38.3915Z" fill="white"/>
<path d="M29.3015 38.3915C28.7786 38.5664 28.3055 39.0958 28.1959 39.6303C27.9818 40.6592 29.0077 41.6882 30.0336 41.4734C30.8055 41.3136 31.4031 40.5244 31.3284 39.7801C31.2736 39.2557 30.8802 38.7162 30.3822 38.4715C30.0784 38.3266 29.6103 38.2916 29.3015 38.3915Z" fill="white"/>
<path d="M57.4689 38.3915C56.946 38.5664 56.4729 39.0958 56.3633 39.6303C56.1492 40.6592 57.1751 41.6882 58.201 41.4734C58.9729 41.3136 59.5705 40.5244 59.4958 39.7801C59.441 39.2557 59.0476 38.7162 58.5496 38.4715C58.2458 38.3266 57.7776 38.2916 57.4689 38.3915Z" fill="white"/>
<path d="M85.6362 38.3915C85.1133 38.5664 84.6402 39.0958 84.5307 39.6303C84.3165 40.6592 85.3424 41.6882 86.3683 41.4734C87.1402 41.3136 87.7378 40.5244 87.6631 39.7801C87.6084 39.2557 87.2149 38.7162 86.7169 38.4715C86.4131 38.3266 85.945 38.2916 85.6362 38.3915Z" fill="white"/>
<path d="M113.804 38.3915C113.281 38.5664 112.808 39.0958 112.698 39.6303C112.484 40.6592 113.51 41.6882 114.536 41.4734C115.308 41.3136 115.905 40.5244 115.83 39.7801C115.776 39.2557 115.382 38.7162 114.884 38.4715C114.58 38.3266 114.112 38.2916 113.804 38.3915Z" fill="white"/>
<path d="M141.971 38.3915C141.448 38.5664 140.975 39.0958 140.865 39.6303C140.651 40.6592 141.677 41.6882 142.703 41.4734C143.475 41.3136 144.073 40.5244 143.998 39.7801C143.943 39.2557 143.55 38.7162 143.052 38.4715C142.748 38.3266 142.28 38.2916 141.971 38.3915Z" fill="white"/>
<path d="M170.138 38.3915C169.615 38.5664 169.142 39.0958 169.033 39.6303C168.819 40.6592 169.844 41.6882 170.87 41.4734C171.642 41.3136 172.24 40.5244 172.165 39.7801C172.11 39.2557 171.717 38.7162 171.219 38.4715C170.915 38.3266 170.447 38.2916 170.138 38.3915Z" fill="white"/>
<path d="M198.306 38.3915C197.783 38.5664 197.31 39.0958 197.2 39.6303C196.986 40.6592 198.012 41.6882 199.038 41.4734C199.81 41.3136 200.407 40.5244 200.333 39.7801C200.278 39.2557 199.884 38.7162 199.386 38.4715C199.083 38.3266 198.614 38.2916 198.306 38.3915Z" fill="white"/>
<path d="M226.473 38.3915C225.95 38.5664 225.477 39.0958 225.367 39.6303C225.153 40.6592 226.179 41.6882 227.205 41.4734C227.977 41.3136 228.575 40.5244 228.5 39.7801C228.445 39.2557 228.052 38.7162 227.554 38.4715C227.25 38.3266 226.782 38.2916 226.473 38.3915Z" fill="white"/>
<path d="M254.641 38.3915C254.118 38.5664 253.644 39.0958 253.535 39.6303C253.321 40.6592 254.347 41.6882 255.373 41.4734C256.144 41.3136 256.742 40.5244 256.667 39.7801C256.613 39.2557 256.219 38.7162 255.721 38.4715C255.417 38.3266 254.949 38.2916 254.641 38.3915Z" fill="white"/>
<path d="M1.13417 57.5589C0.611259 57.7337 0.138152 58.2632 0.0285904 58.7976C-0.185553 59.8266 0.840343 60.8555 1.86624 60.6408C2.63815 60.4809 3.23576 59.6917 3.16106 58.9475C3.10628 58.423 2.71285 57.8836 2.21484 57.6388C1.91106 57.494 1.44293 57.459 1.13417 57.5589Z" fill="white"/>
<path d="M29.3015 57.5589C28.7786 57.7337 28.3055 58.2632 28.1959 58.7976C27.9818 59.8266 29.0077 60.8555 30.0336 60.6408C30.8055 60.4809 31.4031 59.6917 31.3284 58.9475C31.2736 58.423 30.8802 57.8836 30.3822 57.6388C30.0784 57.494 29.6103 57.459 29.3015 57.5589Z" fill="white"/>
<path d="M57.4689 57.5589C56.946 57.7337 56.4729 58.2632 56.3633 58.7976C56.1492 59.8266 57.1751 60.8555 58.201 60.6408C58.9729 60.4809 59.5705 59.6917 59.4958 58.9475C59.441 58.423 59.0476 57.8836 58.5496 57.6388C58.2458 57.494 57.7776 57.459 57.4689 57.5589Z" fill="white"/>
<path d="M85.6362 57.5589C85.1133 57.7337 84.6402 58.2632 84.5307 58.7976C84.3165 59.8266 85.3424 60.8555 86.3683 60.6408C87.1402 60.4809 87.7378 59.6917 87.6631 58.9475C87.6084 58.423 87.2149 57.8836 86.7169 57.6388C86.4131 57.494 85.945 57.459 85.6362 57.5589Z" fill="white"/>
<path d="M113.804 57.5589C113.281 57.7337 112.808 58.2632 112.698 58.7976C112.484 59.8266 113.51 60.8555 114.536 60.6408C115.308 60.4809 115.905 59.6917 115.83 58.9475C115.776 58.423 115.382 57.8836 114.884 57.6388C114.58 57.494 114.112 57.459 113.804 57.5589Z" fill="white"/>
<path d="M141.971 57.5589C141.448 57.7337 140.975 58.2632 140.865 58.7976C140.651 59.8266 141.677 60.8555 142.703 60.6408C143.475 60.4809 144.073 59.6917 143.998 58.9475C143.943 58.423 143.55 57.8836 143.052 57.6388C142.748 57.494 142.28 57.459 141.971 57.5589Z" fill="white"/>
<path d="M170.138 57.5589C169.615 57.7337 169.142 58.2632 169.033 58.7976C168.819 59.8266 169.844 60.8555 170.87 60.6408C171.642 60.4809 172.24 59.6917 172.165 58.9475C172.11 58.423 171.717 57.8836 171.219 57.6388C170.915 57.494 170.447 57.459 170.138 57.5589Z" fill="white"/>
<path d="M198.306 57.5589C197.783 57.7337 197.31 58.2632 197.2 58.7976C196.986 59.8266 198.012 60.8555 199.038 60.6408C199.81 60.4809 200.407 59.6917 200.333 58.9475C200.278 58.423 199.884 57.8836 199.386 57.6388C199.083 57.494 198.614 57.459 198.306 57.5589Z" fill="white"/>
<path d="M226.473 57.5589C225.95 57.7337 225.477 58.2632 225.367 58.7976C225.153 59.8266 226.179 60.8555 227.205 60.6408C227.977 60.4809 228.575 59.6917 228.5 58.9475C228.445 58.423 228.052 57.8836 227.554 57.6388C227.25 57.494 226.782 57.459 226.473 57.5589Z" fill="white"/>
<path d="M254.641 57.5589C254.118 57.7337 253.644 58.2632 253.535 58.7976C253.321 59.8266 254.347 60.8555 255.373 60.6408C256.144 60.4809 256.742 59.6917 256.667 58.9475C256.613 58.423 256.219 57.8836 255.721 57.6388C255.417 57.494 254.949 57.459 254.641 57.5589Z" fill="white"/>
<path d="M1.13417 76.7263C0.611259 76.9011 0.138152 77.4305 0.0285904 77.965C-0.185553 78.9939 0.840343 80.0229 1.86624 79.8081C2.63815 79.6483 3.23576 78.8591 3.16106 78.1148C3.10628 77.5904 2.71285 77.0509 2.21484 76.8062C1.91106 76.6613 1.44293 76.6264 1.13417 76.7263Z" fill="white"/>
<path d="M29.3015 76.7263C28.7786 76.9011 28.3055 77.4305 28.1959 77.965C27.9818 78.9939 29.0077 80.0229 30.0336 79.8081C30.8055 79.6483 31.4031 78.8591 31.3284 78.1148C31.2736 77.5904 30.8802 77.0509 30.3822 76.8062C30.0784 76.6613 29.6103 76.6264 29.3015 76.7263Z" fill="white"/>
<path d="M57.4689 76.7263C56.946 76.9011 56.4729 77.4305 56.3633 77.965C56.1492 78.9939 57.1751 80.0229 58.201 79.8081C58.9729 79.6483 59.5705 78.8591 59.4958 78.1148C59.441 77.5904 59.0476 77.0509 58.5496 76.8062C58.2458 76.6613 57.7776 76.6264 57.4689 76.7263Z" fill="white"/>
<path d="M85.6362 76.7263C85.1133 76.9011 84.6402 77.4305 84.5307 77.965C84.3165 78.9939 85.3424 80.0229 86.3683 79.8081C87.1402 79.6483 87.7378 78.8591 87.6631 78.1148C87.6084 77.5904 87.2149 77.0509 86.7169 76.8062C86.4131 76.6613 85.945 76.6264 85.6362 76.7263Z" fill="white"/>
<path d="M113.804 76.7263C113.281 76.9011 112.808 77.4305 112.698 77.965C112.484 78.9939 113.51 80.0229 114.536 79.8081C115.308 79.6483 115.905 78.8591 115.83 78.1148C115.776 77.5904 115.382 77.0509 114.884 76.8062C114.58 76.6613 114.112 76.6264 113.804 76.7263Z" fill="white"/>
<path d="M141.971 76.7263C141.448 76.9011 140.975 77.4305 140.865 77.965C140.651 78.9939 141.677 80.0229 142.703 79.8081C143.475 79.6483 144.073 78.8591 143.998 78.1148C143.943 77.5904 143.55 77.0509 143.052 76.8062C142.748 76.6613 142.28 76.6264 141.971 76.7263Z" fill="white"/>
<path d="M170.138 76.7263C169.615 76.9011 169.142 77.4305 169.033 77.965C168.819 78.9939 169.844 80.0229 170.87 79.8081C171.642 79.6483 172.24 78.8591 172.165 78.1148C172.11 77.5904 171.717 77.0509 171.219 76.8062C170.915 76.6613 170.447 76.6264 170.138 76.7263Z" fill="white"/>
<path d="M198.306 76.7263C197.783 76.9011 197.31 77.4305 197.2 77.965C196.986 78.9939 198.012 80.0229 199.038 79.8081C199.81 79.6483 200.407 78.8591 200.333 78.1148C200.278 77.5904 199.884 77.0509 199.386 76.8062C199.083 76.6613 198.614 76.6264 198.306 76.7263Z" fill="white"/>
<path d="M226.473 76.7263C225.95 76.9011 225.477 77.4305 225.367 77.965C225.153 78.9939 226.179 80.0229 227.205 79.8081C227.977 79.6483 228.575 78.8591 228.5 78.1148C228.445 77.5904 228.052 77.0509 227.554 76.8062C227.25 76.6613 226.782 76.6264 226.473 76.7263Z" fill="white"/>
<path d="M254.641 76.7263C254.118 76.9011 253.644 77.4305 253.535 77.965C253.321 78.9939 254.347 80.0229 255.373 79.8081C256.144 79.6483 256.742 78.8591 256.667 78.1148C256.613 77.5904 256.219 77.0509 255.721 76.8062C255.417 76.6613 254.949 76.6264 254.641 76.7263Z" fill="white"/>
<path d="M1.13417 95.8936C0.611259 96.0684 0.138152 96.5979 0.0285904 97.1324C-0.185553 98.1613 0.840343 99.1903 1.86624 98.9755C2.63815 98.8156 3.23576 98.0264 3.16106 97.2822C3.10628 96.7577 2.71285 96.2183 2.21484 95.9735C1.91106 95.8287 1.44293 95.7937 1.13417 95.8936Z" fill="white"/>
<path d="M29.3015 95.8936C28.7786 96.0684 28.3055 96.5979 28.1959 97.1324C27.9818 98.1613 29.0077 99.1903 30.0336 98.9755C30.8055 98.8156 31.4031 98.0264 31.3284 97.2822C31.2736 96.7577 30.8802 96.2183 30.3822 95.9735C30.0784 95.8287 29.6103 95.7937 29.3015 95.8936Z" fill="white"/>
<path d="M57.4689 95.8936C56.946 96.0684 56.4729 96.5979 56.3633 97.1324C56.1492 98.1613 57.1751 99.1903 58.201 98.9755C58.9729 98.8156 59.5705 98.0264 59.4958 97.2822C59.441 96.7577 59.0476 96.2183 58.5496 95.9735C58.2458 95.8287 57.7776 95.7937 57.4689 95.8936Z" fill="white"/>
<path d="M85.6362 95.8936C85.1133 96.0684 84.6402 96.5979 84.5307 97.1324C84.3165 98.1613 85.3424 99.1903 86.3683 98.9755C87.1402 98.8156 87.7378 98.0264 87.6631 97.2822C87.6084 96.7577 87.2149 96.2183 86.7169 95.9735C86.4131 95.8287 85.945 95.7937 85.6362 95.8936Z" fill="white"/>
<path d="M113.804 95.8936C113.281 96.0684 112.808 96.5979 112.698 97.1324C112.484 98.1613 113.51 99.1903 114.536 98.9755C115.308 98.8156 115.905 98.0264 115.83 97.2822C115.776 96.7577 115.382 96.2183 114.884 95.9735C114.58 95.8287 114.112 95.7937 113.804 95.8936Z" fill="white"/>
<path d="M141.971 95.8936C141.448 96.0684 140.975 96.5979 140.865 97.1324C140.651 98.1613 141.677 99.1903 142.703 98.9755C143.475 98.8156 144.073 98.0264 143.998 97.2822C143.943 96.7577 143.55 96.2183 143.052 95.9735C142.748 95.8287 142.28 95.7937 141.971 95.8936Z" fill="white"/>
<path d="M170.138 95.8936C169.615 96.0684 169.142 96.5979 169.033 97.1324C168.819 98.1613 169.844 99.1903 170.87 98.9755C171.642 98.8156 172.24 98.0264 172.165 97.2822C172.11 96.7577 171.717 96.2183 171.219 95.9735C170.915 95.8287 170.447 95.7937 170.138 95.8936Z" fill="white"/>
<path d="M198.306 95.8936C197.783 96.0684 197.31 96.5979 197.2 97.1324C196.986 98.1613 198.012 99.1903 199.038 98.9755C199.81 98.8156 200.407 98.0264 200.333 97.2822C200.278 96.7577 199.884 96.2183 199.386 95.9735C199.083 95.8287 198.614 95.7937 198.306 95.8936Z" fill="white"/>
<path d="M226.473 95.8936C225.95 96.0684 225.477 96.5979 225.367 97.1324C225.153 98.1613 226.179 99.1903 227.205 98.9755C227.977 98.8156 228.575 98.0264 228.5 97.2822C228.445 96.7577 228.052 96.2183 227.554 95.9735C227.25 95.8287 226.782 95.7937 226.473 95.8936Z" fill="white"/>
<path d="M254.641 95.8936C254.118 96.0684 253.644 96.5979 253.535 97.1324C253.321 98.1613 254.347 99.1903 255.373 98.9755C256.144 98.8156 256.742 98.0264 256.667 97.2822C256.613 96.7577 256.219 96.2183 255.721 95.9735C255.417 95.8287 254.949 95.7937 254.641 95.8936Z" fill="white"/>
<path d="M1.13417 115.061C0.611259 115.236 0.138152 115.765 0.0285904 116.3C-0.185553 117.329 0.840343 118.358 1.86624 118.143C2.63815 117.983 3.23576 117.194 3.16106 116.45C3.10628 115.925 2.71285 115.386 2.21484 115.141C1.91106 114.996 1.44293 114.961 1.13417 115.061Z" fill="white"/>
<path d="M29.3015 115.061C28.7786 115.236 28.3055 115.765 28.1959 116.3C27.9818 117.329 29.0077 118.358 30.0336 118.143C30.8055 117.983 31.4031 117.194 31.3284 116.45C31.2736 115.925 30.8802 115.386 30.3822 115.141C30.0784 114.996 29.6103 114.961 29.3015 115.061Z" fill="white"/>
<path d="M57.4713 115.07C56.9475 115.244 56.4735 115.771 56.3638 116.304C56.2391 116.886 56.5234 117.518 57.0722 117.892C57.606 118.26 58.2146 118.265 58.7534 117.906C59.6364 117.319 59.7561 116.224 59.0178 115.493C58.5937 115.065 57.9851 114.901 57.4713 115.07Z" fill="white"/>
<path d="M85.6386 115.07C85.1148 115.244 84.6409 115.771 84.5311 116.304C84.4064 116.886 84.6908 117.518 85.2395 117.892C85.7733 118.26 86.3819 118.265 86.9207 117.906C87.8037 117.319 87.9235 116.224 87.1851 115.493C86.7611 115.065 86.1525 114.901 85.6386 115.07Z" fill="white"/>
<path d="M113.803 115.061C113.051 115.311 112.543 116.14 112.697 116.869C112.822 117.463 113.374 118.018 113.967 118.143C114.928 118.347 115.93 117.433 115.83 116.449C115.775 115.925 115.382 115.386 114.884 115.141C114.58 114.996 114.112 114.961 113.803 115.061Z" fill="white"/>
<path d="M141.97 115.061C141.218 115.311 140.71 116.14 140.864 116.869C140.989 117.463 141.542 118.018 142.135 118.143C143.096 118.347 144.097 117.433 143.997 116.449C143.943 115.925 143.549 115.386 143.051 115.141C142.747 114.996 142.279 114.961 141.97 115.061Z" fill="white"/>
<path d="M170.138 115.061C169.385 115.311 168.877 116.14 169.032 116.869C169.156 117.463 169.709 118.018 170.302 118.143C171.263 118.347 172.264 117.433 172.165 116.449C172.11 115.925 171.716 115.386 171.218 115.141C170.915 114.996 170.446 114.961 170.138 115.061Z" fill="white"/>
<path d="M198.305 115.061C197.553 115.311 197.045 116.14 197.199 116.869C197.324 117.463 197.877 118.018 198.469 118.143C199.431 118.347 200.432 117.433 200.332 116.449C200.277 115.925 199.884 115.386 199.386 115.141C199.082 114.996 198.614 114.961 198.305 115.061Z" fill="white"/>
<path d="M226.473 115.061C225.95 115.236 225.477 115.765 225.367 116.3C225.153 117.329 226.179 118.358 227.205 118.143C227.977 117.983 228.575 117.194 228.5 116.45C228.445 115.925 228.052 115.386 227.554 115.141C227.25 114.996 226.782 114.961 226.473 115.061Z" fill="white"/>
<path d="M254.641 115.061C254.118 115.236 253.644 115.765 253.535 116.3C253.321 117.329 254.347 118.358 255.373 118.143C256.144 117.983 256.742 117.194 256.667 116.45C256.613 115.925 256.219 115.386 255.721 115.141C255.417 114.996 254.949 114.961 254.641 115.061Z" fill="white"/>
<path d="M1.13417 134.228C0.611259 134.403 0.138152 134.933 0.0285904 135.467C-0.185553 136.496 0.840343 137.525 1.86624 137.31C2.63815 137.15 3.23576 136.361 3.16106 135.617C3.10628 135.092 2.71285 134.553 2.21484 134.308C1.91106 134.163 1.44293 134.128 1.13417 134.228Z" fill="white"/>
<path d="M29.3015 134.228C28.7786 134.403 28.3055 134.933 28.1959 135.467C27.9818 136.496 29.0077 137.525 30.0336 137.31C30.8055 137.15 31.4031 136.361 31.3284 135.617C31.2736 135.092 30.8802 134.553 30.3822 134.308C30.0784 134.163 29.6103 134.128 29.3015 134.228Z" fill="white"/>
<path d="M57.4713 134.237C56.9475 134.411 56.4735 134.939 56.3638 135.471C56.2391 136.054 56.5234 136.686 57.0722 137.059C57.606 137.427 58.2146 137.432 58.7534 137.074C59.6364 136.487 59.7561 135.392 59.0178 134.66C58.5937 134.232 57.9851 134.068 57.4713 134.237Z" fill="white"/>
<path d="M85.6386 134.237C85.1148 134.411 84.6409 134.939 84.5311 135.471C84.4064 136.054 84.6908 136.686 85.2395 137.059C85.7733 137.427 86.3819 137.432 86.9207 137.074C87.8037 136.487 87.9235 135.392 87.1851 134.66C86.7611 134.232 86.1525 134.068 85.6386 134.237Z" fill="white"/>
<path d="M113.803 134.228C113.051 134.478 112.543 135.307 112.697 136.036C112.822 136.631 113.374 137.185 113.967 137.31C114.928 137.515 115.93 136.601 115.83 135.617C115.775 135.092 115.382 134.553 114.884 134.308C114.58 134.163 114.112 134.128 113.803 134.228Z" fill="white"/>
<path d="M141.97 134.228C141.218 134.478 140.71 135.307 140.864 136.036C140.989 136.631 141.542 137.185 142.135 137.31C143.096 137.515 144.097 136.601 143.997 135.617C143.943 135.092 143.549 134.553 143.051 134.308C142.747 134.163 142.279 134.128 141.97 134.228Z" fill="white"/>
<path d="M170.138 134.228C169.385 134.478 168.877 135.307 169.032 136.036C169.156 136.631 169.709 137.185 170.302 137.31C171.263 137.515 172.264 136.601 172.165 135.617C172.11 135.092 171.716 134.553 171.218 134.308C170.915 134.163 170.446 134.128 170.138 134.228Z" fill="white"/>
<path d="M198.305 134.228C197.553 134.478 197.045 135.307 197.199 136.036C197.324 136.631 197.877 137.185 198.469 137.31C199.431 137.515 200.432 136.601 200.332 135.617C200.277 135.092 199.884 134.553 199.386 134.308C199.082 134.163 198.614 134.128 198.305 134.228Z" fill="white"/>
<path d="M226.473 134.228C225.95 134.403 225.477 134.933 225.367 135.467C225.153 136.496 226.179 137.525 227.205 137.31C227.977 137.15 228.575 136.361 228.5 135.617C228.445 135.092 228.052 134.553 227.554 134.308C227.25 134.163 226.782 134.128 226.473 134.228Z" fill="white"/>
<path d="M254.641 134.228C254.118 134.403 253.644 134.933 253.535 135.467C253.321 136.496 254.347 137.525 255.373 137.31C256.144 137.15 256.742 136.361 256.667 135.617C256.613 135.092 256.219 134.553 255.721 134.308C255.417 134.163 254.949 134.128 254.641 134.228Z" fill="white"/>
<path d="M1.13417 153.396C0.611259 153.571 0.138152 154.1 0.0285904 154.634C-0.185553 155.663 0.840343 156.692 1.86624 156.478C2.63815 156.318 3.23576 155.529 3.16106 154.784C3.10628 154.26 2.71285 153.72 2.21484 153.476C1.91106 153.331 1.44293 153.296 1.13417 153.396Z" fill="white"/>
<path d="M29.3015 153.396C28.7786 153.571 28.3055 154.1 28.1959 154.634C27.9818 155.663 29.0077 156.692 30.0336 156.478C30.8055 156.318 31.4031 155.529 31.3284 154.784C31.2736 154.26 30.8802 153.72 30.3822 153.476C30.0784 153.331 29.6103 153.296 29.3015 153.396Z" fill="white"/>
<path d="M57.4713 153.404C56.9475 153.579 56.4735 154.106 56.3638 154.639C56.2391 155.221 56.5234 155.853 57.0722 156.226C57.606 156.595 58.2146 156.599 58.7534 156.241C59.6364 155.654 59.7561 154.559 59.0178 153.827C58.5937 153.399 57.9851 153.235 57.4713 153.404Z" fill="white"/>
<path d="M85.6386 153.404C85.1148 153.579 84.6409 154.106 84.5311 154.639C84.4064 155.221 84.6908 155.853 85.2395 156.226C85.7733 156.595 86.3819 156.599 86.9207 156.241C87.8037 155.654 87.9235 154.559 87.1851 153.827C86.7611 153.399 86.1525 153.235 85.6386 153.404Z" fill="white"/>
<path d="M113.804 153.396C113.281 153.571 112.808 154.1 112.698 154.634C112.484 155.663 113.51 156.692 114.536 156.478C115.308 156.318 115.905 155.529 115.83 154.784C115.776 154.26 115.382 153.72 114.884 153.476C114.58 153.331 114.112 153.296 113.804 153.396Z" fill="white"/>
<path d="M141.971 153.396C141.448 153.571 140.975 154.1 140.865 154.634C140.651 155.663 141.677 156.692 142.703 156.478C143.475 156.318 144.073 155.529 143.998 154.784C143.943 154.26 143.55 153.72 143.052 153.476C142.748 153.331 142.28 153.296 141.971 153.396Z" fill="white"/>
<path d="M170.138 153.396C169.615 153.571 169.142 154.1 169.033 154.634C168.819 155.663 169.844 156.692 170.87 156.478C171.642 156.318 172.24 155.529 172.165 154.784C172.11 154.26 171.717 153.72 171.219 153.476C170.915 153.331 170.447 153.296 170.138 153.396Z" fill="white"/>
<path d="M198.306 153.396C197.783 153.571 197.31 154.1 197.2 154.634C196.986 155.663 198.012 156.692 199.038 156.478C199.81 156.318 200.407 155.529 200.333 154.784C200.278 154.26 199.884 153.72 199.386 153.476C199.083 153.331 198.614 153.296 198.306 153.396Z" fill="white"/>
<path d="M226.473 153.396C225.95 153.571 225.477 154.1 225.367 154.634C225.153 155.663 226.179 156.692 227.205 156.478C227.977 156.318 228.575 155.529 228.5 154.784C228.445 154.26 228.052 153.72 227.554 153.476C227.25 153.331 226.782 153.296 226.473 153.396Z" fill="white"/>
<path d="M254.641 153.396C254.118 153.571 253.644 154.1 253.535 154.634C253.321 155.663 254.347 156.692 255.373 156.478C256.144 156.318 256.742 155.529 256.667 154.784C256.613 154.26 256.219 153.72 255.721 153.476C255.417 153.331 254.949 153.296 254.641 153.396Z" fill="white"/>
<path d="M1.13417 172.563C0.611259 172.738 0.138152 173.267 0.0285904 173.802C-0.185553 174.831 0.840343 175.86 1.86624 175.645C2.63815 175.485 3.23576 174.696 3.16106 173.952C3.10628 173.427 2.71285 172.888 2.21484 172.643C1.91106 172.498 1.44293 172.463 1.13417 172.563Z" fill="white"/>
<path d="M29.3015 172.563C28.7786 172.738 28.3055 173.267 28.1959 173.802C27.9818 174.831 29.0077 175.86 30.0336 175.645C30.8055 175.485 31.4031 174.696 31.3284 173.952C31.2736 173.427 30.8802 172.888 30.3822 172.643C30.0784 172.498 29.6103 172.463 29.3015 172.563Z" fill="white"/>
<path d="M57.4689 172.563C56.946 172.738 56.4729 173.267 56.3633 173.802C56.1492 174.831 57.1751 175.86 58.201 175.645C58.9729 175.485 59.5705 174.696 59.4958 173.952C59.441 173.427 59.0476 172.888 58.5496 172.643C58.2458 172.498 57.7776 172.463 57.4689 172.563Z" fill="white"/>
<path d="M85.6362 172.563C85.1133 172.738 84.6402 173.267 84.5307 173.802C84.3165 174.831 85.3424 175.86 86.3683 175.645C87.1402 175.485 87.7378 174.696 87.6631 173.952C87.6084 173.427 87.2149 172.888 86.7169 172.643C86.4131 172.498 85.945 172.463 85.6362 172.563Z" fill="white"/>
<path d="M113.804 172.563C113.281 172.738 112.808 173.267 112.698 173.802C112.484 174.831 113.51 175.86 114.536 175.645C115.308 175.485 115.905 174.696 115.83 173.952C115.776 173.427 115.382 172.888 114.884 172.643C114.58 172.498 114.112 172.463 113.804 172.563Z" fill="white"/>
<path d="M141.971 172.563C141.448 172.738 140.975 173.267 140.865 173.802C140.651 174.831 141.677 175.86 142.703 175.645C143.475 175.485 144.073 174.696 143.998 173.952C143.943 173.427 143.55 172.888 143.052 172.643C142.748 172.498 142.28 172.463 141.971 172.563Z" fill="white"/>
<path d="M170.138 172.563C169.615 172.738 169.142 173.267 169.033 173.802C168.819 174.831 169.844 175.86 170.87 175.645C171.642 175.485 172.24 174.696 172.165 173.952C172.11 173.427 171.717 172.888 171.219 172.643C170.915 172.498 170.447 172.463 170.138 172.563Z" fill="white"/>
<path d="M198.306 172.563C197.783 172.738 197.31 173.267 197.2 173.802C196.986 174.831 198.012 175.86 199.038 175.645C199.81 175.485 200.407 174.696 200.333 173.952C200.278 173.427 199.884 172.888 199.386 172.643C199.083 172.498 198.614 172.463 198.306 172.563Z" fill="white"/>
<path d="M226.473 172.563C225.95 172.738 225.477 173.267 225.367 173.802C225.153 174.831 226.179 175.86 227.205 175.645C227.977 175.485 228.575 174.696 228.5 173.952C228.445 173.427 228.052 172.888 227.554 172.643C227.25 172.498 226.782 172.463 226.473 172.563Z" fill="white"/>
<path d="M254.641 172.563C254.118 172.738 253.644 173.267 253.535 173.802C253.321 174.831 254.347 175.86 255.373 175.645C256.144 175.485 256.742 174.696 256.667 173.952C256.613 173.427 256.219 172.888 255.721 172.643C255.417 172.498 254.949 172.463 254.641 172.563Z" fill="white"/>
</svg>
