<svg width="48" height="40" viewBox="0 0 48 40" fill="none" xmlns="http://www.w3.org/2000/svg">
<path d="M47.9399 38.5384L44.6972 29.8509V16.3311H44.6971C44.6932 16.0305 44.5468 15.7497 44.3029 15.5743L22.9197 0.190492C22.9184 0.189733 22.8894 0.169639 22.8831 0.165721C22.5631 -0.0530458 22.1277 -0.0615133 21.795 0.17798L0.394271 15.5742C0.150228 15.7497 0.00400392 16.0304 8.60907e-05 16.3309C-0.00395812 16.6315 0.134683 16.9161 0.374049 17.098L11.2329 25.3574V28.585C11.2329 31.9239 16.9551 33.7255 22.3391 33.7255C27.7323 33.7255 33.4642 31.9239 33.4642 28.585V25.3574L42.8015 18.2554V29.8508L39.5586 38.5384C39.3756 39.0288 39.6245 39.5748 40.115 39.7578C40.2242 39.7986 40.3362 39.818 40.4464 39.818C40.8306 39.818 41.1922 39.5825 41.3345 39.2014L42.8014 35.2714V38.8699C42.8014 39.3933 43.2257 39.8177 43.7492 39.8177C44.2729 39.8177 44.6971 39.3933 44.6971 38.8699V35.2719L46.1638 39.2014C46.3061 39.5826 46.6675 39.818 47.0519 39.818C47.1619 39.818 47.274 39.7986 47.3832 39.7578C47.8737 39.5749 48.1229 39.0288 47.9399 38.5384ZM31.5685 28.585C31.5685 29.908 27.973 31.8298 22.3391 31.8298C16.6327 31.8298 13.1286 29.94 13.1286 28.585V27.0027C14.1285 24.6429 18.0488 22.8808 22.358 22.8808C26.6606 22.8808 30.5728 24.6428 31.5685 27.0022V28.585ZM31.5685 23.9616C29.4765 22.1484 26.0629 20.9851 22.358 20.9851C18.6456 20.9851 15.2243 22.1501 13.1286 23.9653V21.7555C13.1286 18.862 17.3552 16.4174 22.358 16.4174C27.3506 16.4174 31.5685 18.862 31.5685 21.7555V23.9616ZM33.4642 22.9757V21.7556C33.4642 19.7362 32.248 17.8713 30.0397 16.5047C27.9732 15.226 25.2451 14.5218 22.358 14.5218C19.4699 14.5218 16.7387 15.2259 14.6676 16.5043C12.4526 17.8714 11.2328 19.7364 11.2328 21.7558V22.9758L2.54137 16.3649L22.3487 2.11478L42.1558 16.3648L33.4642 22.9757Z" fill="white"/>
</svg>
